<?xml version="1.0" encoding="utf-8"?>
<!-- Generator: Adobe Illustrator 16.0.4, SVG Export Plug-In . SVG Version: 6.00 Build 0)  -->
<!DOCTYPE svg PUBLIC "-//W3C//DTD SVG 1.1//EN" "http://www.w3.org/Graphics/SVG/1.1/DTD/svg11.dtd">
<svg version="1.1" id="mqtt" xmlns="http://www.w3.org/2000/svg" xmlns:xlink="http://www.w3.org/1999/xlink" x="0px" y="0px"
	 width="400px" height="200px" viewBox="0 0 400 200" enable-background="new 0 0 400 200" xml:space="preserve">
<g>
	<g>
		<path fill="none" stroke="#C8C8C8" stroke-width="2" stroke-miterlimit="10" d="M105.134,125.417
			c0,11.612-9.501,21.112-21.112,21.112H31.111c-11.611,0-21.111-9.5-21.111-21.112V72.506c0-11.611,9.5-21.111,21.111-21.111
			h52.911c11.611,0,21.112,9.5,21.112,21.111V125.417z"/>
	</g>
	<g>
		<path fill="#C8C8C8" d="M59.928,145.595c0,0.312-0.019,0.623-0.022,0.935l-32.48-0.008c-9.553,0-17.317-7.749-17.34-17.296
			L10,95.67C37.575,95.67,59.928,118.021,59.928,145.595z"/>
	</g>
	<g>
		<path fill="none" stroke="#C8C8C8" stroke-width="2" stroke-miterlimit="10" d="M10,75.775c38.359,0,69.451,31.097,69.451,69.453
			c0,0.438-0.023,0.867-0.032,1.301"/>
	</g>
	<g>
		<path fill="none" stroke="#C8C8C8" stroke-width="2" stroke-miterlimit="10" d="M29.226,50.896
			c39.016,7.951,69.406,39.626,75.448,79.3"/>
	</g>
	<g>
		<path fill="none" stroke="#C8C8C8" stroke-width="2" stroke-miterlimit="10" d="M83.035,51.156
			c8.312,6.713,15.687,14.528,21.911,23.219"/>
	</g>
	<path fill="#C8C8C8" d="M264.129,58.534V69.76c0,0-0.799-11.226-28.061-11.226c-27.257,0-34.473,24.052-34.473,24.052V60.139
		h-25.654l-13.631,46.502l-13.629-47.304h-25.654v81.902l17.638-0.929V90.605l12.828,49.705h16.835l14.43-52.112v52.913h16.838
		v-20.843c0,0,16.035,22.446,32.066,22.446c16.037,0,21.649-4.008,21.649-4.008s4.006,3.21,7.212,5.612
		c3.21,2.408,8.016,4.784,8.016,4.784l8.322-12.549c-4.005-1.605-11.528-8.268-11.528-8.268s9.426-11.219,9.426-25.65
		s-7.018-26.457-7.018-26.457h16.033v64.939h20.043V75.373h40.889v66.542h21.646V76.174H390v-17.64H264.129z M253.272,121.126
		c-1.208,1.731-12.652-11.212-12.894-10.973l-7.849,10.465c-0.632,0.274,10.731,8.426,10.075,8.617
		c-1.459,0.428-2.977,0.656-4.533,0.656c-11.291,0-20.441-11.842-20.441-26.459c0-14.609,9.15-26.455,20.441-26.455
		c11.289,0,20.45,11.846,20.45,26.455C258.522,110.234,256.53,116.438,253.272,121.126z"/>
</g>
</svg>
